<?xml version="1.0" encoding="UTF-8"?>
<!-- CHORD_DATA: [('O', 0), ('2', 5), ('O', 0), ('2', 5), ('2', 5), ('O', 0)] -->
<svg width="220" height="230" 
     xmlns="http://www.w3.org/2000/svg" 
     xmlns:xlink="http://www.w3.org/1999/xlink"
     viewBox="0 0 220 230">
    <title>Partial Barre with Gaps Guitar Chord</title>
    <desc>Guitar chord diagram for Partial Barre with Gaps</desc>
    <text x="50" y="25" fill="black" font-family="Arial, sans-serif" font-size="16" font-weight="bold">Partial Barre with Gaps</text>
    <rect y="51" x="50" width="150" height="10" style="fill:rgb(0,0,0);stroke-width:1;stroke:rgb(0,0,0);"/>
    <rect x="50" y="62" width="150" height="150" style="fill:rgb(255,255,255);stroke-width:1;stroke:rgb(0,0,0);"/>
    <line x1="50" y1="92" x2="200" y2="92" style="stroke:rgb(0,0,0);stroke-width:1;"/><line x1="50" y1="122" x2="200" y2="122" style="stroke:rgb(0,0,0);stroke-width:1;"/><line x1="50" y1="152" x2="200" y2="152" style="stroke:rgb(0,0,0);stroke-width:1;"/><line x1="50" y1="182" x2="200" y2="182" style="stroke:rgb(0,0,0);stroke-width:1;"/><line x1="50" y1="212" x2="200" y2="212" style="stroke:rgb(0,0,0);stroke-width:1;"/>
    <line x1="50" y1="62" x2="50" y2="212" style="stroke:rgb(0,0,0);stroke-width:1;"/><line x1="80" y1="62" x2="80" y2="212" style="stroke:rgb(0,0,0);stroke-width:1;"/><line x1="110" y1="62" x2="110" y2="212" style="stroke:rgb(0,0,0);stroke-width:1;"/><line x1="140" y1="62" x2="140" y2="212" style="stroke:rgb(0,0,0);stroke-width:1;"/><line x1="170" y1="62" x2="170" y2="212" style="stroke:rgb(0,0,0);stroke-width:1;"/><line x1="200" y1="62" x2="200" y2="212" style="stroke:rgb(0,0,0);stroke-width:1;"/>
    <circle cx="50" cy="40" r="5" stroke="black" stroke-width="2" fill="white" /><circle cx="110" cy="40" r="5" stroke="black" stroke-width="2" fill="white" /><circle cx="200" cy="40" r="5" stroke="black" stroke-width="2" fill="white" />
    <line x1="80" y1="198" x2="170" y2="198" style="stroke:rgb(0,0,0);stroke-width:8;stroke-linecap:round;"/><circle cx="80" cy="198" r="12" stroke="black" stroke-width="1" fill="black" /><text x="76" y="203" fill="white" font-family="Arial, sans-serif" font-size="12" font-weight="bold">2</text><circle cx="140" cy="198" r="12" stroke="black" stroke-width="1" fill="black" /><text x="136" y="203" fill="white" font-family="Arial, sans-serif" font-size="12" font-weight="bold">2</text><circle cx="170" cy="198" r="12" stroke="black" stroke-width="1" fill="black" /><text x="166" y="203" fill="white" font-family="Arial, sans-serif" font-size="12" font-weight="bold">2</text>
    <text x="200" y="25" fill="gray" font-family="Arial, sans-serif" font-size="10" text-anchor="end">E0.5</text>
</svg>